G75*
%MOIN*%
%OFA0B0*%
%FSLAX24Y24*%
%IPPOS*%
%LPD*%
%AMOC8*
5,1,8,0,0,1.08239X$1,22.5*
%
%ADD10C,0.0827*%
%ADD11R,0.0540X0.0260*%
%ADD12R,0.0260X0.0540*%
%ADD13R,0.0670X0.0827*%
%ADD14R,0.0750X0.0670*%
%ADD15R,0.0591X0.0512*%
%ADD16R,0.0670X0.0749*%
%ADD17R,0.0555X0.0555*%
%ADD18C,0.0555*%
%ADD19C,0.0780*%
%ADD20C,0.1306*%
%ADD21C,0.0473*%
%ADD22R,0.0670X0.0750*%
%ADD23C,0.0217*%
%ADD24R,0.0604X0.1376*%
%ADD25R,0.0906X0.0276*%
D10*
X025773Y001550D03*
X025773Y006300D03*
D11*
X023588Y005027D03*
X023588Y004712D03*
X023588Y004397D03*
X023588Y004082D03*
X023588Y003768D03*
X023588Y003453D03*
X023588Y003138D03*
X023588Y002823D03*
X020208Y002823D03*
X020208Y003138D03*
X020208Y003453D03*
X020208Y003768D03*
X020208Y004082D03*
X020208Y004397D03*
X020208Y004712D03*
X020208Y005027D03*
D12*
X020796Y005615D03*
X021110Y005615D03*
X021425Y005615D03*
X021740Y005615D03*
X022055Y005615D03*
X022370Y005615D03*
X022685Y005615D03*
X023000Y005615D03*
X023000Y002235D03*
X022685Y002235D03*
X022370Y002235D03*
X022055Y002235D03*
X021740Y002235D03*
X021425Y002235D03*
X021110Y002235D03*
X020796Y002235D03*
D13*
X019199Y001300D03*
X018097Y001300D03*
D14*
X024773Y002240D03*
X024773Y003360D03*
D15*
X026398Y003334D03*
X026398Y004516D03*
D16*
X019199Y006550D03*
X018097Y006550D03*
X011199Y006550D03*
X010097Y006550D03*
X010097Y001300D03*
X011199Y001300D03*
X013347Y001300D03*
X014449Y001300D03*
D17*
X016023Y005425D03*
D18*
X017023Y005425D03*
X017023Y004425D03*
X016023Y004425D03*
X016023Y003425D03*
X017023Y003425D03*
X017023Y002425D03*
X016023Y002425D03*
D19*
X014788Y002645D03*
X013008Y002645D03*
X008093Y002547D03*
X008093Y003481D03*
X008093Y004369D03*
X008093Y005303D03*
X013008Y005205D03*
X014788Y005205D03*
D20*
X007148Y001642D03*
X007148Y006208D03*
D21*
X007109Y004811D03*
X007109Y003039D03*
D22*
X013338Y006550D03*
X014458Y006550D03*
D23*
X025060Y005342D02*
X025060Y005342D01*
X024486Y005342D01*
X024486Y005342D01*
X025060Y005342D01*
X025060Y004870D02*
X025060Y004870D01*
X024486Y004870D01*
X024486Y004870D01*
X025060Y004870D01*
X025060Y004398D02*
X025060Y004398D01*
X024486Y004398D01*
X024486Y004398D01*
X025060Y004398D01*
D24*
X024774Y004869D03*
D25*
X011671Y004675D03*
X011671Y004175D03*
X011671Y003675D03*
X011671Y003175D03*
X009624Y003175D03*
X009624Y003675D03*
X009624Y004175D03*
X009624Y004675D03*
M02*
