G75*
%MOIN*%
%OFA0B0*%
%FSLAX24Y24*%
%IPPOS*%
%LPD*%
%AMOC8*
5,1,8,0,0,1.08239X$1,22.5*
%
%ADD10R,0.0500X0.0220*%
%ADD11R,0.0220X0.0500*%
%ADD12R,0.0630X0.0787*%
%ADD13R,0.0710X0.0630*%
%ADD14R,0.0551X0.0472*%
%ADD15R,0.0630X0.0709*%
%ADD16R,0.0515X0.0515*%
%ADD17C,0.0515*%
%ADD18C,0.0740*%
%ADD19C,0.1266*%
%ADD20R,0.0630X0.0710*%
%ADD21C,0.0177*%
%ADD22C,0.0100*%
%ADD23C,0.0400*%
%ADD24R,0.0866X0.0236*%
%ADD25C,0.0060*%
%ADD26C,0.0080*%
%ADD27C,0.0240*%
%ADD28C,0.0120*%
D10*
X020208Y002823D03*
X020208Y003138D03*
X020208Y003453D03*
X020208Y003768D03*
X020208Y004082D03*
X020208Y004397D03*
X020208Y004712D03*
X020208Y005027D03*
X023588Y005027D03*
X023588Y004712D03*
X023588Y004397D03*
X023588Y004082D03*
X023588Y003768D03*
X023588Y003453D03*
X023588Y003138D03*
X023588Y002823D03*
D11*
X023000Y002235D03*
X022685Y002235D03*
X022370Y002235D03*
X022055Y002235D03*
X021740Y002235D03*
X021425Y002235D03*
X021110Y002235D03*
X020796Y002235D03*
X020796Y005615D03*
X021110Y005615D03*
X021425Y005615D03*
X021740Y005615D03*
X022055Y005615D03*
X022370Y005615D03*
X022685Y005615D03*
X023000Y005615D03*
D12*
X019199Y001300D03*
X018097Y001300D03*
D13*
X024773Y002240D03*
X024773Y003360D03*
D14*
X026398Y003334D03*
X026398Y004516D03*
D15*
X019199Y006550D03*
X018097Y006550D03*
X011199Y006550D03*
X010097Y006550D03*
X010097Y001300D03*
X011199Y001300D03*
X013347Y001300D03*
X014449Y001300D03*
D16*
X016023Y005425D03*
D17*
X017023Y005425D03*
X017023Y004425D03*
X016023Y004425D03*
X016023Y003425D03*
X017023Y003425D03*
X017023Y002425D03*
X016023Y002425D03*
D18*
X014788Y002645D03*
X013008Y002645D03*
X008093Y002547D03*
X008093Y003481D03*
X008093Y004369D03*
X008093Y005303D03*
X013008Y005205D03*
X014788Y005205D03*
D19*
X007148Y006208D03*
X007148Y001642D03*
D20*
X013338Y006550D03*
X014458Y006550D03*
D21*
X025060Y005342D02*
X025060Y005342D01*
X024486Y005342D01*
X024486Y005342D01*
X025060Y005342D01*
X025060Y004870D02*
X025060Y004870D01*
X024486Y004870D01*
X024486Y004870D01*
X025060Y004870D01*
X025060Y004398D02*
X025060Y004398D01*
X024486Y004398D01*
X024486Y004398D01*
X025060Y004398D01*
D22*
X025173Y004398D02*
X024773Y004398D01*
X024373Y004398D01*
X024373Y004870D02*
X024773Y004870D01*
X025173Y004870D01*
X025173Y005342D02*
X024773Y005342D01*
X024373Y005342D01*
D23*
X019148Y004925D03*
X018148Y004925D03*
X018148Y003925D03*
X019148Y003925D03*
X019148Y002925D03*
X018148Y002925D03*
D24*
X011671Y003175D03*
X011671Y003675D03*
X011671Y004175D03*
X011671Y004675D03*
X009624Y004675D03*
X009624Y004175D03*
X009624Y003675D03*
X009624Y003175D03*
D25*
X010648Y003175D01*
X012523Y001300D01*
X013347Y001300D01*
X014448Y001301D02*
X014449Y001300D01*
X014448Y001301D02*
X014448Y001925D01*
X014523Y002175D02*
X014148Y002175D01*
X012648Y003675D01*
X011671Y003675D01*
X011671Y004175D02*
X012648Y004175D01*
X015273Y003550D02*
X015273Y006550D01*
X014458Y006550D01*
X019148Y004925D02*
X019838Y005615D01*
X020796Y005615D01*
X021098Y005550D02*
X021110Y005615D01*
X021098Y005550D02*
X021098Y005125D01*
X020923Y004950D01*
X020273Y004675D02*
X020208Y004712D01*
X019875Y005027D02*
X019773Y004925D01*
X019773Y004550D01*
X019148Y003925D01*
X018148Y003925D02*
X016523Y003925D01*
X016023Y004425D01*
X015273Y003550D02*
X015898Y002925D01*
X016523Y002925D01*
X017023Y002425D01*
X019148Y002300D02*
X019198Y002250D01*
X019198Y001925D01*
X019198Y001300D01*
X019199Y001300D01*
X021648Y001300D01*
X022055Y001707D01*
X022055Y002235D01*
X022370Y002235D02*
X022373Y002175D01*
X022373Y001675D01*
X022998Y001800D02*
X022998Y002175D01*
X023000Y002235D01*
X022685Y002235D02*
X022673Y002300D01*
X022673Y002675D01*
X022875Y002823D02*
X022773Y002925D01*
X020773Y002925D01*
X019148Y002925D02*
X019148Y002300D01*
X017523Y001675D02*
X015023Y001675D01*
X014523Y002175D01*
X009323Y004175D02*
X009073Y003925D01*
X008536Y003925D01*
X008093Y003481D01*
X009323Y004175D02*
X009624Y004175D01*
X008998Y004675D02*
X008692Y004369D01*
X008093Y004369D01*
X008998Y004675D02*
X009624Y004675D01*
X019875Y005027D02*
X020208Y005027D01*
X021425Y005615D02*
X021425Y006147D01*
X021023Y006550D01*
X019773Y006550D01*
X024058Y005027D02*
X024373Y005342D01*
X024058Y005027D02*
X023588Y005027D01*
X023588Y004712D02*
X024058Y004712D01*
X024373Y004398D01*
X024773Y003360D02*
X024783Y003350D01*
X025623Y003350D01*
X025648Y003325D01*
X026388Y003325D01*
X026398Y003334D01*
X024722Y002251D02*
X024148Y002825D01*
X024148Y002925D01*
X023935Y003138D01*
X023588Y003138D01*
X023588Y002823D02*
X022875Y002823D01*
X024722Y002251D02*
X024773Y002240D01*
D26*
X023588Y003768D02*
X023230Y003768D01*
X022923Y004075D01*
X022073Y004075D01*
X021748Y004400D01*
X020898Y004400D01*
X020585Y004712D01*
X020208Y004712D01*
X020580Y004082D02*
X020898Y004400D01*
X020580Y004082D02*
X020208Y004082D01*
X019680Y004082D01*
X019523Y003925D01*
X019523Y003675D01*
X019273Y003425D01*
X018773Y003425D01*
X018648Y003300D01*
X018648Y002925D01*
X018098Y002375D01*
X018098Y001300D01*
X018097Y001300D01*
X011671Y003175D02*
X011023Y003175D01*
X008715Y001925D02*
X008093Y002547D01*
X008715Y001925D02*
X009498Y001925D01*
X010097Y001326D01*
X010097Y001300D01*
X018648Y003550D02*
X018773Y003425D01*
X018648Y003550D02*
X018648Y004425D01*
X018148Y004925D01*
X018148Y005550D01*
X018098Y005600D01*
X018098Y006549D01*
X018097Y006550D01*
X013898Y005950D02*
X013338Y006510D01*
X013338Y006550D01*
X011199Y006550D01*
X011198Y006526D01*
X011198Y005750D01*
X011671Y005276D01*
X011671Y004675D01*
X013898Y004675D02*
X013898Y005950D01*
X022923Y004075D02*
X023245Y004397D01*
X023588Y004397D01*
D27*
X020923Y004950D03*
X019773Y006550D03*
X015273Y006550D03*
X013898Y004675D03*
X012648Y004175D03*
X011023Y003175D03*
X009498Y001925D03*
X006523Y000925D03*
X014448Y001925D03*
X017523Y001675D03*
X019198Y001925D03*
X022373Y001675D03*
X022998Y001800D03*
X022673Y002675D03*
X020773Y002925D03*
X026523Y000925D03*
X026523Y006925D03*
X006523Y006925D03*
D28*
X006308Y007065D02*
X006308Y000785D01*
X026738Y000785D01*
X026738Y002993D01*
X026723Y002978D01*
X026073Y002978D01*
X026002Y003049D01*
X026002Y003175D01*
X025586Y003175D01*
X025561Y003200D01*
X025248Y003200D01*
X025248Y002995D01*
X025178Y002925D01*
X024368Y002925D01*
X024298Y002995D01*
X024298Y003725D01*
X024368Y003795D01*
X025178Y003795D01*
X025248Y003725D01*
X025248Y003500D01*
X025685Y003500D01*
X025710Y003475D01*
X026002Y003475D01*
X026002Y003620D01*
X026033Y003651D01*
X026033Y004146D01*
X026024Y004151D01*
X025994Y004181D01*
X025973Y004218D01*
X025962Y004258D01*
X025962Y004457D01*
X026340Y004457D01*
X026340Y004574D01*
X026340Y004912D01*
X026101Y004912D01*
X026061Y004901D01*
X026024Y004880D01*
X025994Y004850D01*
X025973Y004814D01*
X025962Y004773D01*
X025962Y004574D01*
X026340Y004574D01*
X026456Y004574D01*
X026456Y004912D01*
X026695Y004912D01*
X026735Y004901D01*
X026738Y004899D01*
X026738Y007065D01*
X006308Y007065D01*
X006308Y006956D02*
X006984Y006956D01*
X006998Y006962D02*
X006721Y006847D01*
X006509Y006635D01*
X006395Y006358D01*
X006395Y006059D01*
X006509Y005782D01*
X006721Y005570D01*
X006998Y005455D01*
X007298Y005455D01*
X007574Y005570D01*
X007786Y005782D01*
X007901Y006059D01*
X007901Y006358D01*
X007786Y006635D01*
X007574Y006847D01*
X007298Y006962D01*
X006998Y006962D01*
X006711Y006837D02*
X006308Y006837D01*
X006308Y006719D02*
X006593Y006719D01*
X006495Y006600D02*
X006308Y006600D01*
X006308Y006482D02*
X006446Y006482D01*
X006397Y006363D02*
X006308Y006363D01*
X006308Y006245D02*
X006395Y006245D01*
X006395Y006126D02*
X006308Y006126D01*
X006308Y006008D02*
X006416Y006008D01*
X006465Y005889D02*
X006308Y005889D01*
X006308Y005771D02*
X006521Y005771D01*
X006639Y005652D02*
X006308Y005652D01*
X006308Y005534D02*
X006809Y005534D01*
X006308Y005415D02*
X007574Y005415D01*
X007576Y005427D02*
X007563Y005345D01*
X007563Y005333D01*
X008063Y005333D01*
X008063Y005833D01*
X008051Y005833D01*
X007969Y005820D01*
X007889Y005794D01*
X007815Y005756D01*
X007747Y005707D01*
X007688Y005648D01*
X007639Y005581D01*
X007602Y005506D01*
X007576Y005427D01*
X007615Y005534D02*
X007486Y005534D01*
X007656Y005652D02*
X007692Y005652D01*
X007775Y005771D02*
X007843Y005771D01*
X008063Y005771D02*
X008123Y005771D01*
X008123Y005833D02*
X008123Y005333D01*
X008623Y005333D01*
X008623Y005345D01*
X008610Y005427D01*
X008584Y005506D01*
X008546Y005581D01*
X008497Y005648D01*
X008438Y005707D01*
X008371Y005756D01*
X008296Y005794D01*
X008217Y005820D01*
X008134Y005833D01*
X008123Y005833D01*
X008343Y005771D02*
X011038Y005771D01*
X011038Y005684D02*
X011132Y005590D01*
X011511Y005210D01*
X011511Y004913D01*
X011189Y004913D01*
X011118Y004843D01*
X011118Y004507D01*
X011189Y004437D01*
X012154Y004437D01*
X012225Y004507D01*
X012225Y004843D01*
X012154Y004913D01*
X011831Y004913D01*
X011831Y005343D01*
X011738Y005436D01*
X011738Y005436D01*
X011358Y005816D01*
X011358Y006076D01*
X011564Y006076D01*
X011634Y006146D01*
X011634Y006390D01*
X012903Y006390D01*
X012903Y006145D01*
X012973Y006075D01*
X013547Y006075D01*
X013738Y005884D01*
X013738Y004854D01*
X013694Y004811D01*
X013658Y004723D01*
X013658Y004627D01*
X013694Y004539D01*
X013762Y004472D01*
X013850Y004435D01*
X013946Y004435D01*
X014034Y004472D01*
X014101Y004539D01*
X014138Y004627D01*
X014138Y004723D01*
X014101Y004811D01*
X014058Y004854D01*
X014058Y006016D01*
X013773Y006301D01*
X013773Y006955D01*
X013703Y007025D01*
X012973Y007025D01*
X012903Y006955D01*
X012903Y006710D01*
X011634Y006710D01*
X011634Y006954D01*
X011564Y007024D01*
X010834Y007024D01*
X010764Y006954D01*
X010764Y006146D01*
X010834Y006076D01*
X011038Y006076D01*
X011038Y005684D01*
X011070Y005652D02*
X008493Y005652D01*
X008123Y005652D02*
X008063Y005652D01*
X008063Y005534D02*
X008123Y005534D01*
X008570Y005534D02*
X011188Y005534D01*
X011307Y005415D02*
X008612Y005415D01*
X008623Y005273D02*
X008123Y005273D01*
X008123Y005333D01*
X008063Y005333D01*
X008063Y005273D01*
X007563Y005273D01*
X007563Y005261D01*
X007576Y005179D01*
X007602Y005100D01*
X007639Y005025D01*
X007688Y004958D01*
X007747Y004899D01*
X007815Y004850D01*
X007886Y004813D01*
X007815Y004784D01*
X007677Y004646D01*
X007603Y004466D01*
X007603Y004271D01*
X007677Y004091D01*
X007815Y003953D01*
X007884Y003925D01*
X007815Y003897D01*
X007677Y003759D01*
X007603Y003579D01*
X007603Y003384D01*
X007677Y003204D01*
X007815Y003066D01*
X007940Y003014D01*
X007815Y002962D01*
X007677Y002825D01*
X007603Y002645D01*
X007603Y002450D01*
X007677Y002269D01*
X007815Y002132D01*
X007995Y002057D01*
X008190Y002057D01*
X008308Y002106D01*
X008649Y001765D01*
X009318Y001765D01*
X009362Y001722D01*
X009450Y001685D01*
X009512Y001685D01*
X009662Y001535D01*
X009662Y000896D01*
X009732Y000826D01*
X010461Y000826D01*
X010532Y000896D01*
X010532Y001704D01*
X010461Y001774D01*
X009875Y001774D01*
X009738Y001911D01*
X009738Y001973D01*
X009701Y002061D01*
X009634Y002128D01*
X009546Y002165D01*
X009450Y002165D01*
X009362Y002128D01*
X009318Y002085D01*
X008781Y002085D01*
X008534Y002332D01*
X008583Y002450D01*
X008583Y002645D01*
X008508Y002825D01*
X008370Y002962D01*
X008245Y003014D01*
X008370Y003066D01*
X008508Y003204D01*
X008583Y003384D01*
X008583Y003579D01*
X008530Y003706D01*
X008599Y003775D01*
X009031Y003775D01*
X009031Y003675D01*
X009031Y003536D01*
X009042Y003495D01*
X009063Y003459D01*
X009093Y003429D01*
X009129Y003408D01*
X009135Y003406D01*
X009071Y003343D01*
X009071Y003007D01*
X009141Y002937D01*
X010107Y002937D01*
X010177Y003007D01*
X010177Y003025D01*
X010586Y003025D01*
X012373Y001238D01*
X012461Y001150D01*
X012912Y001150D01*
X012912Y000896D01*
X012982Y000826D01*
X013711Y000826D01*
X013782Y000896D01*
X013782Y001704D01*
X013711Y001774D01*
X012982Y001774D01*
X012912Y001704D01*
X012912Y001450D01*
X012585Y001450D01*
X011091Y002944D01*
X011155Y002970D01*
X011189Y002937D01*
X012154Y002937D01*
X012225Y003007D01*
X012225Y003343D01*
X012154Y003413D01*
X011189Y003413D01*
X011155Y003380D01*
X011071Y003415D01*
X010975Y003415D01*
X010887Y003378D01*
X010819Y003311D01*
X010791Y003244D01*
X010710Y003325D01*
X010177Y003325D01*
X010177Y003343D01*
X010114Y003406D01*
X010119Y003408D01*
X010156Y003429D01*
X010185Y003459D01*
X010206Y003495D01*
X010217Y003536D01*
X010217Y003675D01*
X010217Y003814D01*
X010206Y003855D01*
X010185Y003891D01*
X010156Y003921D01*
X010119Y003942D01*
X010114Y003944D01*
X010177Y004007D01*
X010177Y004343D01*
X010107Y004413D01*
X009141Y004413D01*
X009071Y004343D01*
X009071Y004135D01*
X009011Y004075D01*
X008492Y004075D01*
X008508Y004091D01*
X008561Y004219D01*
X008754Y004219D01*
X008842Y004307D01*
X009060Y004525D01*
X009071Y004525D01*
X009071Y004507D01*
X009141Y004437D01*
X010107Y004437D01*
X010177Y004507D01*
X010177Y004843D01*
X010107Y004913D01*
X009141Y004913D01*
X009071Y004843D01*
X009071Y004825D01*
X008936Y004825D01*
X008629Y004519D01*
X008561Y004519D01*
X008508Y004646D01*
X008370Y004784D01*
X008299Y004813D01*
X008371Y004850D01*
X008438Y004899D01*
X008497Y004958D01*
X008546Y005025D01*
X008584Y005100D01*
X008610Y005179D01*
X008623Y005261D01*
X008623Y005273D01*
X008123Y005297D02*
X011425Y005297D01*
X011759Y005415D02*
X012564Y005415D01*
X012592Y005483D02*
X012518Y005302D01*
X012518Y005108D01*
X012592Y004927D01*
X012730Y004790D01*
X012910Y004715D01*
X013105Y004715D01*
X013285Y004790D01*
X013423Y004927D01*
X013498Y005108D01*
X013498Y005302D01*
X013423Y005483D01*
X013285Y005620D01*
X013105Y005695D01*
X012910Y005695D01*
X012730Y005620D01*
X012592Y005483D01*
X012643Y005534D02*
X011641Y005534D01*
X011522Y005652D02*
X012807Y005652D01*
X013209Y005652D02*
X013738Y005652D01*
X013738Y005771D02*
X011404Y005771D01*
X011358Y005889D02*
X013733Y005889D01*
X013614Y006008D02*
X011358Y006008D01*
X011038Y006008D02*
X007880Y006008D01*
X007831Y005889D02*
X011038Y005889D01*
X010561Y006134D02*
X010540Y006097D01*
X010510Y006068D01*
X010473Y006047D01*
X010433Y006036D01*
X010157Y006036D01*
X010157Y006490D01*
X010157Y006610D01*
X010572Y006610D01*
X010572Y006925D01*
X010561Y006966D01*
X010540Y007003D01*
X010510Y007032D01*
X010473Y007053D01*
X010433Y007064D01*
X010157Y007064D01*
X010157Y006610D01*
X010037Y006610D01*
X010037Y007064D01*
X009761Y007064D01*
X009720Y007053D01*
X009683Y007032D01*
X009654Y007003D01*
X009633Y006966D01*
X009622Y006925D01*
X009622Y006610D01*
X009623Y006610D01*
X009623Y006490D01*
X009622Y006490D01*
X009622Y006175D01*
X009633Y006134D01*
X009654Y006097D01*
X009683Y006068D01*
X009720Y006047D01*
X009761Y006036D01*
X010037Y006036D01*
X010037Y006490D01*
X010157Y006490D01*
X010572Y006490D01*
X010572Y006175D01*
X010561Y006134D01*
X010556Y006126D02*
X010784Y006126D01*
X010764Y006245D02*
X010572Y006245D01*
X010572Y006363D02*
X010764Y006363D01*
X010764Y006482D02*
X010572Y006482D01*
X010764Y006600D02*
X010157Y006600D01*
X010157Y006719D02*
X010037Y006719D01*
X010037Y006837D02*
X010157Y006837D01*
X010157Y006956D02*
X010037Y006956D01*
X009630Y006956D02*
X007312Y006956D01*
X007584Y006837D02*
X009622Y006837D01*
X009622Y006719D02*
X007703Y006719D01*
X007801Y006600D02*
X009623Y006600D01*
X009622Y006482D02*
X007850Y006482D01*
X007899Y006363D02*
X009622Y006363D01*
X009622Y006245D02*
X007901Y006245D01*
X007901Y006126D02*
X009637Y006126D01*
X010037Y006126D02*
X010157Y006126D01*
X010157Y006245D02*
X010037Y006245D01*
X010037Y006363D02*
X010157Y006363D01*
X010157Y006482D02*
X010037Y006482D01*
X010572Y006719D02*
X010764Y006719D01*
X010764Y006837D02*
X010572Y006837D01*
X010564Y006956D02*
X010766Y006956D01*
X011633Y006956D02*
X012904Y006956D01*
X012903Y006837D02*
X011634Y006837D01*
X011634Y006719D02*
X012903Y006719D01*
X013773Y006719D02*
X014023Y006719D01*
X014023Y006600D02*
X013773Y006600D01*
X013773Y006482D02*
X014023Y006482D01*
X014023Y006363D02*
X013773Y006363D01*
X013830Y006245D02*
X014023Y006245D01*
X014023Y006145D02*
X014093Y006075D01*
X014822Y006075D01*
X014893Y006145D01*
X014893Y006400D01*
X015083Y006400D01*
X015123Y006361D01*
X015123Y005563D01*
X015065Y005620D01*
X014885Y005695D01*
X014690Y005695D01*
X014510Y005620D01*
X014372Y005483D01*
X014298Y005302D01*
X014298Y005108D01*
X014372Y004927D01*
X014510Y004790D01*
X014690Y004715D01*
X014885Y004715D01*
X015065Y004790D01*
X015123Y004847D01*
X015123Y003488D01*
X015211Y003400D01*
X015748Y002863D01*
X015836Y002775D01*
X015881Y002775D01*
X015809Y002745D01*
X015703Y002639D01*
X015645Y002500D01*
X015645Y002350D01*
X015703Y002211D01*
X015809Y002105D01*
X015948Y002048D01*
X016098Y002048D01*
X016237Y002105D01*
X016343Y002211D01*
X016400Y002350D01*
X016400Y002500D01*
X016343Y002639D01*
X016237Y002745D01*
X016164Y002775D01*
X016461Y002775D01*
X016672Y002564D01*
X016645Y002500D01*
X016645Y002350D01*
X016703Y002211D01*
X016809Y002105D01*
X016948Y002048D01*
X017098Y002048D01*
X017237Y002105D01*
X017343Y002211D01*
X017400Y002350D01*
X017400Y002500D01*
X017343Y002639D01*
X017237Y002745D01*
X017098Y002802D01*
X016948Y002802D01*
X016884Y002776D01*
X016585Y003075D01*
X016164Y003075D01*
X016237Y003105D01*
X016343Y003211D01*
X016400Y003350D01*
X016400Y003500D01*
X016343Y003639D01*
X016237Y003745D01*
X016098Y003802D01*
X015948Y003802D01*
X015809Y003745D01*
X015703Y003639D01*
X015645Y003500D01*
X015645Y003390D01*
X015423Y003612D01*
X015423Y006361D01*
X015476Y006414D01*
X015513Y006502D01*
X015513Y006598D01*
X015476Y006686D01*
X015409Y006753D01*
X015321Y006790D01*
X015225Y006790D01*
X015137Y006753D01*
X015083Y006700D01*
X014893Y006700D01*
X014893Y006955D01*
X014822Y007025D01*
X014093Y007025D01*
X014023Y006955D01*
X014023Y006145D01*
X014042Y006126D02*
X013948Y006126D01*
X014058Y006008D02*
X015123Y006008D01*
X015123Y005889D02*
X014058Y005889D01*
X014058Y005771D02*
X015123Y005771D01*
X015123Y005652D02*
X014989Y005652D01*
X015423Y005652D02*
X015605Y005652D01*
X015605Y005704D02*
X015605Y005444D01*
X015608Y005444D01*
X015608Y005406D01*
X015605Y005406D01*
X015605Y005146D01*
X015616Y005106D01*
X015637Y005069D01*
X015667Y005039D01*
X015704Y005018D01*
X015744Y005008D01*
X016004Y005008D01*
X016004Y005406D01*
X016042Y005406D01*
X016042Y005008D01*
X016301Y005008D01*
X016342Y005018D01*
X016379Y005039D01*
X016408Y005069D01*
X016429Y005106D01*
X016440Y005146D01*
X016440Y005406D01*
X016438Y005406D01*
X016438Y005444D01*
X016440Y005444D01*
X016440Y005704D01*
X016429Y005744D01*
X016408Y005781D01*
X016379Y005811D01*
X016342Y005832D01*
X016301Y005842D01*
X016042Y005842D01*
X016042Y005444D01*
X016004Y005444D01*
X016004Y005842D01*
X015744Y005842D01*
X015704Y005832D01*
X015667Y005811D01*
X015637Y005781D01*
X015616Y005744D01*
X015605Y005704D01*
X015631Y005771D02*
X015423Y005771D01*
X015423Y005889D02*
X017938Y005889D01*
X017938Y006008D02*
X015423Y006008D01*
X015423Y006126D02*
X017682Y006126D01*
X017662Y006146D02*
X017732Y006076D01*
X017938Y006076D01*
X017938Y005534D01*
X017988Y005484D01*
X017988Y005205D01*
X017967Y005196D01*
X017877Y005106D01*
X017828Y004989D01*
X017828Y004861D01*
X017877Y004744D01*
X017967Y004654D01*
X018084Y004605D01*
X018212Y004605D01*
X018233Y004614D01*
X018488Y004359D01*
X018488Y003484D01*
X018547Y003425D01*
X018488Y003366D01*
X018488Y003045D01*
X018488Y003045D01*
X018467Y003096D01*
X018428Y003154D01*
X018377Y003205D01*
X018318Y003244D01*
X018253Y003271D01*
X018183Y003285D01*
X018148Y003285D01*
X018148Y002925D01*
X018148Y002925D01*
X018148Y003285D01*
X018112Y003285D01*
X018043Y003271D01*
X017977Y003244D01*
X017918Y003205D01*
X017868Y003154D01*
X017829Y003096D01*
X017802Y003030D01*
X017788Y002960D01*
X017788Y002925D01*
X017788Y002890D01*
X017802Y002820D01*
X017829Y002754D01*
X017868Y002696D01*
X017918Y002645D01*
X017977Y002606D01*
X018043Y002579D01*
X018070Y002573D01*
X017938Y002441D01*
X017938Y001814D01*
X017732Y001814D01*
X017727Y001809D01*
X017726Y001811D01*
X017659Y001878D01*
X017571Y001915D01*
X017475Y001915D01*
X017387Y001878D01*
X017333Y001825D01*
X015085Y001825D01*
X014748Y002162D01*
X014748Y002605D01*
X014828Y002605D01*
X014828Y002115D01*
X014830Y002115D01*
X014912Y002128D01*
X014991Y002154D01*
X015066Y002192D01*
X015133Y002241D01*
X015192Y002300D01*
X015241Y002367D01*
X015279Y002442D01*
X015305Y002521D01*
X015307Y002537D01*
X015308Y002538D01*
X015308Y002540D01*
X015318Y002603D01*
X015318Y002605D01*
X015308Y002605D01*
X015308Y002685D01*
X015318Y002685D01*
X015318Y002687D01*
X015308Y002750D01*
X015308Y002752D01*
X015307Y002753D01*
X015305Y002769D01*
X015279Y002848D01*
X015241Y002923D01*
X015192Y002990D01*
X015133Y003049D01*
X015066Y003098D01*
X014991Y003136D01*
X014912Y003162D01*
X014830Y003175D01*
X014828Y003175D01*
X014828Y002685D01*
X014748Y002685D01*
X014748Y003175D01*
X014746Y003175D01*
X014664Y003162D01*
X014584Y003136D01*
X014510Y003098D01*
X014443Y003049D01*
X014384Y002990D01*
X014335Y002923D01*
X014297Y002848D01*
X014271Y002769D01*
X014268Y002753D01*
X014268Y002752D01*
X014268Y002750D01*
X014258Y002687D01*
X014258Y002685D01*
X014268Y002685D01*
X014268Y002605D01*
X014258Y002605D01*
X014258Y002603D01*
X014268Y002540D01*
X014268Y002538D01*
X014268Y002537D01*
X014271Y002521D01*
X014297Y002442D01*
X014335Y002367D01*
X014365Y002325D01*
X014210Y002325D01*
X012710Y003825D01*
X012225Y003825D01*
X012225Y003843D01*
X012154Y003913D01*
X011189Y003913D01*
X011118Y003843D01*
X011118Y003507D01*
X011189Y003437D01*
X012154Y003437D01*
X012225Y003507D01*
X012225Y003525D01*
X012586Y003525D01*
X012976Y003135D01*
X012910Y003135D01*
X012730Y003060D01*
X012592Y002923D01*
X012518Y002742D01*
X012518Y002548D01*
X012592Y002367D01*
X012730Y002230D01*
X012910Y002155D01*
X013105Y002155D01*
X013285Y002230D01*
X013423Y002367D01*
X013498Y002548D01*
X013498Y002613D01*
X013998Y002113D01*
X014086Y002025D01*
X014230Y002025D01*
X014208Y001973D01*
X014208Y001877D01*
X014244Y001789D01*
X014259Y001774D01*
X014084Y001774D01*
X014014Y001704D01*
X014014Y000896D01*
X014084Y000826D01*
X014814Y000826D01*
X014884Y000896D01*
X014884Y001602D01*
X014961Y001525D01*
X017333Y001525D01*
X017387Y001472D01*
X017475Y001435D01*
X017571Y001435D01*
X017659Y001472D01*
X017662Y001474D01*
X017662Y000857D01*
X017732Y000786D01*
X018461Y000786D01*
X018532Y000857D01*
X018532Y001743D01*
X018461Y001814D01*
X018258Y001814D01*
X018258Y002309D01*
X018714Y002765D01*
X018808Y002859D01*
X018808Y003234D01*
X018839Y003265D01*
X019339Y003265D01*
X019433Y003359D01*
X019589Y003515D01*
X019683Y003609D01*
X019683Y003859D01*
X019747Y003922D01*
X019804Y003922D01*
X019798Y003899D01*
X019798Y003768D01*
X020208Y003768D01*
X020618Y003768D01*
X020618Y003899D01*
X020611Y003922D01*
X020647Y003922D01*
X020964Y004240D01*
X021682Y004240D01*
X022007Y003915D01*
X022857Y003915D01*
X023164Y003608D01*
X023184Y003608D01*
X023178Y003584D01*
X023178Y003453D01*
X023588Y003453D01*
X023998Y003453D01*
X023998Y003584D01*
X023987Y003624D01*
X023966Y003661D01*
X023958Y003669D01*
X023958Y003866D01*
X023966Y003874D01*
X023987Y003911D01*
X023998Y003951D01*
X023998Y004082D01*
X023588Y004082D01*
X023588Y004082D01*
X023998Y004082D01*
X023998Y004214D01*
X023987Y004254D01*
X023966Y004291D01*
X023958Y004299D01*
X023958Y004562D01*
X023996Y004562D01*
X024203Y004355D01*
X024203Y004327D01*
X024302Y004228D01*
X024308Y004228D01*
X024308Y004113D01*
X024361Y004060D01*
X025185Y004060D01*
X025238Y004113D01*
X025238Y004228D01*
X025243Y004228D01*
X025343Y004327D01*
X025343Y004468D01*
X025243Y004568D01*
X025238Y004568D01*
X025238Y004697D01*
X025252Y004712D01*
X025280Y004752D01*
X025298Y004797D01*
X025308Y004846D01*
X025308Y004870D01*
X024773Y004870D01*
X024773Y004870D01*
X025308Y004870D01*
X025308Y004894D01*
X025298Y004943D01*
X025280Y004988D01*
X025252Y005028D01*
X025238Y005043D01*
X025238Y005172D01*
X025243Y005172D01*
X025343Y005272D01*
X025343Y005413D01*
X025243Y005512D01*
X025238Y005512D01*
X025238Y005637D01*
X025185Y005690D01*
X024361Y005690D01*
X024308Y005637D01*
X024308Y005512D01*
X024302Y005512D01*
X024203Y005413D01*
X024203Y005385D01*
X023996Y005177D01*
X023958Y005177D01*
X023958Y005187D01*
X023888Y005257D01*
X023288Y005257D01*
X023218Y005187D01*
X023218Y004557D01*
X023179Y004557D01*
X022857Y004235D01*
X022139Y004235D01*
X021814Y004560D01*
X020964Y004560D01*
X020652Y004872D01*
X020578Y004872D01*
X020578Y005187D01*
X020508Y005257D01*
X019908Y005257D01*
X019838Y005187D01*
X019838Y005177D01*
X019813Y005177D01*
X019711Y005075D01*
X019623Y004987D01*
X019623Y004612D01*
X019243Y004232D01*
X019212Y004245D01*
X019084Y004245D01*
X018967Y004196D01*
X018877Y004106D01*
X018828Y003989D01*
X018828Y003861D01*
X018877Y003744D01*
X018967Y003654D01*
X019084Y003605D01*
X019212Y003605D01*
X019237Y003616D01*
X019207Y003585D01*
X018839Y003585D01*
X018808Y003616D01*
X018808Y004491D01*
X018459Y004840D01*
X018468Y004861D01*
X018468Y004989D01*
X018419Y005106D01*
X018329Y005196D01*
X018308Y005205D01*
X018308Y005616D01*
X018258Y005666D01*
X018258Y006076D01*
X018461Y006076D01*
X018532Y006146D01*
X018532Y006954D01*
X018461Y007024D01*
X017732Y007024D01*
X017662Y006954D01*
X017662Y006146D01*
X017662Y006245D02*
X015423Y006245D01*
X015425Y006363D02*
X017662Y006363D01*
X017662Y006482D02*
X015504Y006482D01*
X015512Y006600D02*
X017662Y006600D01*
X017662Y006719D02*
X015444Y006719D01*
X015102Y006719D02*
X014893Y006719D01*
X014893Y006837D02*
X017662Y006837D01*
X017663Y006956D02*
X014892Y006956D01*
X014024Y006956D02*
X013772Y006956D01*
X013773Y006837D02*
X014023Y006837D01*
X014893Y006363D02*
X015120Y006363D01*
X015123Y006245D02*
X014893Y006245D01*
X014873Y006126D02*
X015123Y006126D01*
X016004Y005771D02*
X016042Y005771D01*
X016042Y005652D02*
X016004Y005652D01*
X016414Y005771D02*
X016871Y005771D01*
X016809Y005745D02*
X016703Y005639D01*
X016645Y005500D01*
X016645Y005350D01*
X016703Y005211D01*
X016809Y005105D01*
X016948Y005048D01*
X017098Y005048D01*
X017237Y005105D01*
X017343Y005211D01*
X017400Y005350D01*
X017400Y005500D01*
X017343Y005639D01*
X017237Y005745D01*
X017098Y005802D01*
X016948Y005802D01*
X016809Y005745D01*
X016716Y005652D02*
X016440Y005652D01*
X016440Y005534D02*
X016659Y005534D01*
X016645Y005415D02*
X016438Y005415D01*
X016440Y005297D02*
X016668Y005297D01*
X016736Y005178D02*
X016440Y005178D01*
X016399Y005060D02*
X016919Y005060D01*
X017127Y005060D02*
X017857Y005060D01*
X017948Y005178D02*
X017310Y005178D01*
X017378Y005297D02*
X017988Y005297D01*
X017988Y005415D02*
X017400Y005415D01*
X017387Y005534D02*
X017938Y005534D01*
X018308Y005534D02*
X019544Y005534D01*
X019900Y005465D02*
X020566Y005465D01*
X020566Y005315D01*
X020636Y005245D01*
X020948Y005245D01*
X020948Y005190D01*
X020875Y005190D01*
X020787Y005153D01*
X020719Y005086D01*
X020683Y004998D01*
X020683Y004902D01*
X020719Y004814D01*
X020787Y004747D01*
X020875Y004710D01*
X020971Y004710D01*
X021059Y004747D01*
X021126Y004814D01*
X021163Y004902D01*
X021163Y004978D01*
X021248Y005063D01*
X021248Y005245D01*
X022845Y005245D01*
X023160Y005245D01*
X023230Y005315D01*
X023230Y005915D01*
X023160Y005985D01*
X021575Y005985D01*
X021575Y006210D01*
X021085Y006700D01*
X019962Y006700D01*
X019909Y006753D01*
X019821Y006790D01*
X019725Y006790D01*
X019674Y006769D01*
X019674Y006925D01*
X019663Y006966D01*
X019642Y007003D01*
X019612Y007032D01*
X019576Y007053D01*
X019535Y007064D01*
X019259Y007064D01*
X019259Y006610D01*
X019139Y006610D01*
X019139Y006490D01*
X018724Y006490D01*
X018724Y006175D01*
X018735Y006134D01*
X018756Y006097D01*
X018786Y006068D01*
X018822Y006047D01*
X018863Y006036D01*
X019139Y006036D01*
X019139Y006490D01*
X019259Y006490D01*
X019259Y006036D01*
X019535Y006036D01*
X019576Y006047D01*
X019612Y006068D01*
X019642Y006097D01*
X019663Y006134D01*
X019674Y006175D01*
X019674Y006331D01*
X019725Y006310D01*
X019821Y006310D01*
X019909Y006347D01*
X019962Y006400D01*
X020961Y006400D01*
X021275Y006085D01*
X021275Y005985D01*
X020636Y005985D01*
X020566Y005915D01*
X020566Y005765D01*
X019776Y005765D01*
X019688Y005677D01*
X019243Y005232D01*
X019212Y005245D01*
X019084Y005245D01*
X018967Y005196D01*
X018877Y005106D01*
X018828Y004989D01*
X018828Y004861D01*
X018877Y004744D01*
X018967Y004654D01*
X019084Y004605D01*
X019212Y004605D01*
X019329Y004654D01*
X019419Y004744D01*
X019468Y004861D01*
X019468Y004989D01*
X019455Y005020D01*
X019900Y005465D01*
X019850Y005415D02*
X020566Y005415D01*
X020584Y005297D02*
X019732Y005297D01*
X019426Y005415D02*
X018308Y005415D01*
X018308Y005297D02*
X019307Y005297D01*
X019613Y005178D02*
X019838Y005178D01*
X019695Y005060D02*
X019495Y005060D01*
X019468Y004941D02*
X019623Y004941D01*
X019623Y004823D02*
X019452Y004823D01*
X019379Y004704D02*
X019623Y004704D01*
X019596Y004586D02*
X018714Y004586D01*
X018595Y004704D02*
X018916Y004704D01*
X018844Y004823D02*
X018477Y004823D01*
X018468Y004941D02*
X018828Y004941D01*
X018857Y005060D02*
X018439Y005060D01*
X018347Y005178D02*
X018948Y005178D01*
X017828Y004941D02*
X015423Y004941D01*
X015423Y004823D02*
X017844Y004823D01*
X017916Y004704D02*
X017278Y004704D01*
X017237Y004745D02*
X017098Y004802D01*
X016948Y004802D01*
X016809Y004745D01*
X016703Y004639D01*
X016645Y004500D01*
X016645Y004350D01*
X016703Y004211D01*
X016809Y004105D01*
X016881Y004075D01*
X016585Y004075D01*
X016374Y004286D01*
X016400Y004350D01*
X016400Y004500D01*
X016343Y004639D01*
X016237Y004745D01*
X016098Y004802D01*
X015948Y004802D01*
X015809Y004745D01*
X015703Y004639D01*
X015645Y004500D01*
X015645Y004350D01*
X015703Y004211D01*
X015809Y004105D01*
X015948Y004048D01*
X016098Y004048D01*
X016162Y004074D01*
X016373Y003863D01*
X016373Y003863D01*
X016461Y003775D01*
X016881Y003775D01*
X016809Y003745D01*
X016703Y003639D01*
X016645Y003500D01*
X016645Y003350D01*
X016703Y003211D01*
X016809Y003105D01*
X016948Y003048D01*
X017098Y003048D01*
X017237Y003105D01*
X017343Y003211D01*
X017400Y003350D01*
X017400Y003500D01*
X017343Y003639D01*
X017237Y003745D01*
X017164Y003775D01*
X017864Y003775D01*
X017877Y003744D01*
X017967Y003654D01*
X018084Y003605D01*
X018212Y003605D01*
X018329Y003654D01*
X018419Y003744D01*
X018468Y003861D01*
X018468Y003989D01*
X018419Y004106D01*
X018329Y004196D01*
X018212Y004245D01*
X018084Y004245D01*
X017967Y004196D01*
X017877Y004106D01*
X017864Y004075D01*
X017164Y004075D01*
X017237Y004105D01*
X017343Y004211D01*
X017400Y004350D01*
X017400Y004500D01*
X017343Y004639D01*
X017237Y004745D01*
X017365Y004586D02*
X018261Y004586D01*
X018380Y004467D02*
X017400Y004467D01*
X017400Y004349D02*
X018488Y004349D01*
X018808Y004349D02*
X019359Y004349D01*
X019478Y004467D02*
X018808Y004467D01*
X018808Y004230D02*
X019048Y004230D01*
X018882Y004112D02*
X018808Y004112D01*
X018488Y004112D02*
X018414Y004112D01*
X018488Y004230D02*
X018248Y004230D01*
X018048Y004230D02*
X017351Y004230D01*
X017243Y004112D02*
X017882Y004112D01*
X018466Y003993D02*
X018488Y003993D01*
X018488Y003875D02*
X018468Y003875D01*
X018808Y003875D02*
X018828Y003875D01*
X018830Y003993D02*
X018808Y003993D01*
X018808Y003756D02*
X018872Y003756D01*
X018808Y003638D02*
X019006Y003638D01*
X018488Y003638D02*
X018290Y003638D01*
X018424Y003756D02*
X018488Y003756D01*
X018006Y003638D02*
X017343Y003638D01*
X017210Y003756D02*
X017872Y003756D01*
X017393Y003519D02*
X018488Y003519D01*
X018522Y003401D02*
X017400Y003401D01*
X017372Y003282D02*
X018097Y003282D01*
X018148Y003282D02*
X018148Y003282D01*
X018198Y003282D02*
X018488Y003282D01*
X018488Y003164D02*
X018418Y003164D01*
X018148Y003164D02*
X018148Y003164D01*
X017877Y003164D02*
X017295Y003164D01*
X017808Y003045D02*
X016615Y003045D01*
X016734Y002927D02*
X017788Y002927D01*
X017788Y002925D02*
X018148Y002925D01*
X017788Y002925D01*
X017807Y002808D02*
X016852Y002808D01*
X016546Y002690D02*
X016292Y002690D01*
X016371Y002571D02*
X016665Y002571D01*
X016645Y002453D02*
X016400Y002453D01*
X016394Y002334D02*
X016652Y002334D01*
X016701Y002216D02*
X016345Y002216D01*
X016217Y002097D02*
X016828Y002097D01*
X017217Y002097D02*
X017938Y002097D01*
X017938Y001979D02*
X014932Y001979D01*
X014813Y002097D02*
X015828Y002097D01*
X015701Y002216D02*
X015098Y002216D01*
X015217Y002334D02*
X015652Y002334D01*
X015645Y002453D02*
X015283Y002453D01*
X015313Y002571D02*
X015675Y002571D01*
X015754Y002690D02*
X015317Y002690D01*
X015292Y002808D02*
X015803Y002808D01*
X015684Y002927D02*
X015238Y002927D01*
X015137Y003045D02*
X015566Y003045D01*
X015447Y003164D02*
X014902Y003164D01*
X014828Y003164D02*
X014748Y003164D01*
X014674Y003164D02*
X013371Y003164D01*
X013253Y003282D02*
X015329Y003282D01*
X015210Y003401D02*
X013134Y003401D01*
X013016Y003519D02*
X015123Y003519D01*
X015123Y003638D02*
X012897Y003638D01*
X012779Y003756D02*
X015123Y003756D01*
X015423Y003756D02*
X015836Y003756D01*
X015702Y003638D02*
X015423Y003638D01*
X015516Y003519D02*
X015653Y003519D01*
X015645Y003401D02*
X015634Y003401D01*
X016295Y003164D02*
X016751Y003164D01*
X016674Y003282D02*
X016372Y003282D01*
X016400Y003401D02*
X016645Y003401D01*
X016653Y003519D02*
X016393Y003519D01*
X016343Y003638D02*
X016702Y003638D01*
X016836Y003756D02*
X016210Y003756D01*
X016361Y003875D02*
X015423Y003875D01*
X015423Y003993D02*
X016243Y003993D01*
X016548Y004112D02*
X016803Y004112D01*
X016695Y004230D02*
X016430Y004230D01*
X016400Y004349D02*
X016646Y004349D01*
X016645Y004467D02*
X016400Y004467D01*
X016365Y004586D02*
X016681Y004586D01*
X016768Y004704D02*
X016278Y004704D01*
X015768Y004704D02*
X015423Y004704D01*
X015423Y004586D02*
X015681Y004586D01*
X015645Y004467D02*
X015423Y004467D01*
X015423Y004349D02*
X015646Y004349D01*
X015695Y004230D02*
X015423Y004230D01*
X015423Y004112D02*
X015803Y004112D01*
X015123Y004112D02*
X012881Y004112D01*
X012888Y004127D02*
X012888Y004223D01*
X012851Y004311D01*
X012784Y004378D01*
X012696Y004415D01*
X012600Y004415D01*
X012512Y004378D01*
X012458Y004325D01*
X012225Y004325D01*
X012225Y004343D01*
X012154Y004413D01*
X011189Y004413D01*
X011118Y004343D01*
X011118Y004007D01*
X011189Y003937D01*
X012154Y003937D01*
X012225Y004007D01*
X012225Y004025D01*
X012458Y004025D01*
X012512Y003972D01*
X012600Y003935D01*
X012696Y003935D01*
X012784Y003972D01*
X012851Y004039D01*
X012888Y004127D01*
X012885Y004230D02*
X015123Y004230D01*
X015123Y004349D02*
X012814Y004349D01*
X012482Y004349D02*
X012219Y004349D01*
X012184Y004467D02*
X013773Y004467D01*
X014023Y004467D02*
X015123Y004467D01*
X015123Y004586D02*
X014121Y004586D01*
X014138Y004704D02*
X015123Y004704D01*
X015123Y004823D02*
X015098Y004823D01*
X014477Y004823D02*
X014090Y004823D01*
X014058Y004941D02*
X014367Y004941D01*
X014318Y005060D02*
X014058Y005060D01*
X014058Y005178D02*
X014298Y005178D01*
X014298Y005297D02*
X014058Y005297D01*
X014058Y005415D02*
X014344Y005415D01*
X014423Y005534D02*
X014058Y005534D01*
X013738Y005534D02*
X013372Y005534D01*
X013451Y005415D02*
X013738Y005415D01*
X013738Y005297D02*
X013498Y005297D01*
X013498Y005178D02*
X013738Y005178D01*
X013738Y005060D02*
X013478Y005060D01*
X013429Y004941D02*
X013738Y004941D01*
X013706Y004823D02*
X013318Y004823D01*
X013658Y004704D02*
X012225Y004704D01*
X012225Y004586D02*
X013675Y004586D01*
X012697Y004823D02*
X012225Y004823D01*
X012587Y004941D02*
X011831Y004941D01*
X011511Y004941D02*
X008480Y004941D01*
X008317Y004823D02*
X008933Y004823D01*
X008815Y004704D02*
X008450Y004704D01*
X008533Y004586D02*
X008696Y004586D01*
X009002Y004467D02*
X009111Y004467D01*
X009077Y004349D02*
X008884Y004349D01*
X008765Y004230D02*
X009071Y004230D01*
X009047Y004112D02*
X008517Y004112D01*
X007775Y003993D02*
X006308Y003993D01*
X006308Y003875D02*
X007793Y003875D01*
X007676Y003756D02*
X006308Y003756D01*
X006308Y003638D02*
X007627Y003638D01*
X007603Y003519D02*
X006308Y003519D01*
X006308Y003401D02*
X006997Y003401D01*
X007034Y003416D02*
X006895Y003358D01*
X006789Y003252D01*
X006732Y003114D01*
X006732Y002964D01*
X006789Y002826D01*
X006895Y002720D01*
X007034Y002663D01*
X007183Y002663D01*
X007322Y002720D01*
X007428Y002826D01*
X007485Y002964D01*
X007485Y003114D01*
X007428Y003252D01*
X007322Y003358D01*
X007183Y003416D01*
X007034Y003416D01*
X007220Y003401D02*
X007603Y003401D01*
X007645Y003282D02*
X007398Y003282D01*
X007465Y003164D02*
X007718Y003164D01*
X007866Y003045D02*
X007485Y003045D01*
X007469Y002927D02*
X007779Y002927D01*
X007670Y002808D02*
X007410Y002808D01*
X007248Y002690D02*
X007621Y002690D01*
X007603Y002571D02*
X006308Y002571D01*
X006308Y002453D02*
X007603Y002453D01*
X007651Y002334D02*
X007444Y002334D01*
X007574Y002280D02*
X007298Y002395D01*
X006998Y002395D01*
X006721Y002280D01*
X006509Y002068D01*
X006395Y001791D01*
X006395Y001492D01*
X006509Y001215D01*
X006721Y001003D01*
X006998Y000888D01*
X007298Y000888D01*
X007574Y001003D01*
X007786Y001215D01*
X007901Y001492D01*
X007901Y001791D01*
X007786Y002068D01*
X007574Y002280D01*
X007639Y002216D02*
X007731Y002216D01*
X007757Y002097D02*
X007899Y002097D01*
X007823Y001979D02*
X008435Y001979D01*
X008317Y002097D02*
X008287Y002097D01*
X008651Y002216D02*
X011395Y002216D01*
X011277Y002334D02*
X008535Y002334D01*
X008583Y002453D02*
X011158Y002453D01*
X011040Y002571D02*
X008583Y002571D01*
X008564Y002690D02*
X010921Y002690D01*
X010803Y002808D02*
X008515Y002808D01*
X008406Y002927D02*
X010684Y002927D01*
X011109Y002927D02*
X012596Y002927D01*
X012715Y003045D02*
X012225Y003045D01*
X012225Y003164D02*
X012947Y003164D01*
X012829Y003282D02*
X012225Y003282D01*
X012167Y003401D02*
X012710Y003401D01*
X012592Y003519D02*
X012225Y003519D01*
X011176Y003401D02*
X011106Y003401D01*
X011118Y003519D02*
X010213Y003519D01*
X010120Y003401D02*
X010940Y003401D01*
X010807Y003282D02*
X010753Y003282D01*
X011118Y003638D02*
X010217Y003638D01*
X010217Y003675D02*
X009624Y003675D01*
X009031Y003675D01*
X009624Y003675D01*
X009624Y003675D01*
X010217Y003675D01*
X010217Y003756D02*
X011118Y003756D01*
X011150Y003875D02*
X010195Y003875D01*
X010163Y003993D02*
X011133Y003993D01*
X011118Y004112D02*
X010177Y004112D01*
X010177Y004230D02*
X011118Y004230D01*
X011124Y004349D02*
X010172Y004349D01*
X010137Y004467D02*
X011159Y004467D01*
X011118Y004586D02*
X010177Y004586D01*
X010177Y004704D02*
X011118Y004704D01*
X011118Y004823D02*
X010177Y004823D01*
X011511Y005060D02*
X008564Y005060D01*
X008609Y005178D02*
X011511Y005178D01*
X011831Y005178D02*
X012518Y005178D01*
X012538Y005060D02*
X011831Y005060D01*
X011831Y005297D02*
X012518Y005297D01*
X014058Y005652D02*
X014587Y005652D01*
X015423Y005534D02*
X015605Y005534D01*
X015608Y005415D02*
X015423Y005415D01*
X015423Y005297D02*
X015605Y005297D01*
X015605Y005178D02*
X015423Y005178D01*
X015423Y005060D02*
X015647Y005060D01*
X016004Y005060D02*
X016042Y005060D01*
X016042Y005178D02*
X016004Y005178D01*
X016004Y005297D02*
X016042Y005297D01*
X016042Y005534D02*
X016004Y005534D01*
X017175Y005771D02*
X017938Y005771D01*
X017938Y005652D02*
X017330Y005652D01*
X018258Y005771D02*
X020566Y005771D01*
X020566Y005889D02*
X018258Y005889D01*
X018258Y006008D02*
X021275Y006008D01*
X021575Y006008D02*
X025295Y006008D01*
X025303Y005986D02*
X025459Y005831D01*
X025663Y005746D01*
X025883Y005746D01*
X026087Y005831D01*
X026242Y005986D01*
X026327Y006190D01*
X026327Y006410D01*
X026242Y006614D01*
X026087Y006769D01*
X025883Y006854D01*
X025663Y006854D01*
X025459Y006769D01*
X025303Y006614D01*
X025219Y006410D01*
X025219Y006190D01*
X025303Y005986D01*
X025401Y005889D02*
X023230Y005889D01*
X023230Y005771D02*
X025604Y005771D01*
X025941Y005771D02*
X026738Y005771D01*
X026738Y005652D02*
X025223Y005652D01*
X025238Y005534D02*
X026738Y005534D01*
X026738Y005415D02*
X025341Y005415D01*
X025343Y005297D02*
X026738Y005297D01*
X026738Y005178D02*
X025249Y005178D01*
X025238Y005060D02*
X026738Y005060D01*
X026738Y004941D02*
X025299Y004941D01*
X025303Y004823D02*
X025978Y004823D01*
X026340Y004823D02*
X026456Y004823D01*
X026456Y004704D02*
X026340Y004704D01*
X026340Y004586D02*
X026456Y004586D01*
X026340Y004467D02*
X025343Y004467D01*
X025343Y004349D02*
X025962Y004349D01*
X025970Y004230D02*
X025246Y004230D01*
X025237Y004112D02*
X026033Y004112D01*
X026033Y003993D02*
X023998Y003993D01*
X023966Y003875D02*
X026033Y003875D01*
X026033Y003756D02*
X025216Y003756D01*
X025248Y003638D02*
X026019Y003638D01*
X026002Y003519D02*
X025248Y003519D01*
X025248Y003164D02*
X026002Y003164D01*
X026006Y003045D02*
X025248Y003045D01*
X025179Y002927D02*
X026738Y002927D01*
X026738Y002808D02*
X024377Y002808D01*
X024298Y002887D02*
X024298Y002987D01*
X024210Y003075D01*
X024085Y003200D01*
X023997Y003288D01*
X023989Y003288D01*
X023998Y003321D01*
X023998Y003453D01*
X023588Y003453D01*
X023588Y003453D01*
X023588Y003453D01*
X023178Y003453D01*
X023178Y003321D01*
X023189Y003281D01*
X023210Y003244D01*
X023218Y003236D01*
X023218Y002973D01*
X022937Y002973D01*
X022835Y003075D01*
X022711Y003075D01*
X020962Y003075D01*
X020909Y003128D01*
X020821Y003165D01*
X020725Y003165D01*
X020637Y003128D01*
X020618Y003109D01*
X020618Y003138D01*
X020618Y003269D01*
X020607Y003309D01*
X020586Y003346D01*
X020578Y003354D01*
X020578Y003551D01*
X020586Y003559D01*
X020607Y003596D01*
X020618Y003636D01*
X020618Y003768D01*
X020208Y003768D01*
X020208Y003768D01*
X020208Y003768D01*
X019798Y003768D01*
X019798Y003636D01*
X019809Y003596D01*
X019830Y003559D01*
X019838Y003551D01*
X019838Y003354D01*
X019830Y003346D01*
X019809Y003309D01*
X019798Y003269D01*
X019798Y003138D01*
X020208Y003138D01*
X020618Y003138D01*
X020208Y003138D01*
X020208Y003138D01*
X020208Y003138D01*
X019798Y003138D01*
X019798Y003007D01*
X019809Y002966D01*
X019830Y002929D01*
X019838Y002921D01*
X019838Y002663D01*
X019908Y002593D01*
X020508Y002593D01*
X020578Y002663D01*
X020578Y002781D01*
X020637Y002722D01*
X020725Y002685D01*
X020821Y002685D01*
X020909Y002722D01*
X020962Y002775D01*
X022455Y002775D01*
X022433Y002723D01*
X022433Y002627D01*
X022442Y002605D01*
X020636Y002605D01*
X020566Y002535D01*
X020566Y001935D01*
X020636Y001865D01*
X021905Y001865D01*
X021905Y001770D01*
X021586Y001450D01*
X019634Y001450D01*
X019634Y001743D01*
X019564Y001814D01*
X019412Y001814D01*
X019438Y001877D01*
X019438Y001973D01*
X019401Y002061D01*
X019348Y002114D01*
X019348Y002312D01*
X019298Y002362D01*
X019298Y002641D01*
X019329Y002654D01*
X019419Y002744D01*
X019468Y002861D01*
X019468Y002989D01*
X019419Y003106D01*
X019329Y003196D01*
X019212Y003245D01*
X019084Y003245D01*
X018967Y003196D01*
X018877Y003106D01*
X018828Y002989D01*
X018828Y002861D01*
X018877Y002744D01*
X018967Y002654D01*
X018998Y002641D01*
X018998Y002238D01*
X019048Y002188D01*
X019048Y002114D01*
X018994Y002061D01*
X018958Y001973D01*
X018958Y001877D01*
X018984Y001814D01*
X018834Y001814D01*
X018764Y001743D01*
X018764Y000857D01*
X018834Y000786D01*
X019564Y000786D01*
X019634Y000857D01*
X019634Y001150D01*
X021710Y001150D01*
X022149Y001589D01*
X022169Y001539D01*
X022237Y001472D01*
X022325Y001435D01*
X022421Y001435D01*
X022509Y001472D01*
X022576Y001539D01*
X022613Y001627D01*
X022613Y001723D01*
X022576Y001811D01*
X022523Y001864D01*
X022523Y001865D01*
X022765Y001865D01*
X022758Y001848D01*
X022758Y001752D01*
X022794Y001664D01*
X022862Y001597D01*
X022950Y001560D01*
X023046Y001560D01*
X023134Y001597D01*
X023201Y001664D01*
X023238Y001752D01*
X023238Y001848D01*
X023210Y001915D01*
X023230Y001935D01*
X023230Y002535D01*
X023160Y002605D01*
X022904Y002605D01*
X022913Y002627D01*
X022913Y002673D01*
X023218Y002673D01*
X023218Y002663D01*
X023288Y002593D01*
X023888Y002593D01*
X023958Y002663D01*
X023958Y002903D01*
X023998Y002863D01*
X023998Y002763D01*
X024086Y002675D01*
X024298Y002463D01*
X024298Y001875D01*
X024368Y001805D01*
X025178Y001805D01*
X025248Y001875D01*
X025248Y002605D01*
X025178Y002675D01*
X024510Y002675D01*
X024298Y002887D01*
X024298Y002927D02*
X024367Y002927D01*
X024298Y003045D02*
X024240Y003045D01*
X024210Y003075D02*
X024210Y003075D01*
X024121Y003164D02*
X024298Y003164D01*
X024298Y003282D02*
X024003Y003282D01*
X024085Y003200D02*
X024085Y003200D01*
X023998Y003401D02*
X024298Y003401D01*
X024298Y003519D02*
X023998Y003519D01*
X023979Y003638D02*
X024298Y003638D01*
X024329Y003756D02*
X023958Y003756D01*
X023178Y003519D02*
X020578Y003519D01*
X020578Y003401D02*
X023178Y003401D01*
X023188Y003282D02*
X020614Y003282D01*
X020618Y003164D02*
X020722Y003164D01*
X020824Y003164D02*
X023218Y003164D01*
X023218Y003045D02*
X022865Y003045D01*
X022433Y002690D02*
X020831Y002690D01*
X020714Y002690D02*
X020578Y002690D01*
X020602Y002571D02*
X019298Y002571D01*
X019298Y002453D02*
X020566Y002453D01*
X020566Y002334D02*
X019326Y002334D01*
X019348Y002216D02*
X020566Y002216D01*
X020566Y002097D02*
X019365Y002097D01*
X019435Y001979D02*
X020566Y001979D01*
X019634Y001742D02*
X021877Y001742D01*
X021905Y001860D02*
X019431Y001860D01*
X018965Y001860D02*
X018258Y001860D01*
X018532Y001742D02*
X018764Y001742D01*
X018764Y001623D02*
X018532Y001623D01*
X018532Y001505D02*
X018764Y001505D01*
X018764Y001386D02*
X018532Y001386D01*
X018532Y001268D02*
X018764Y001268D01*
X018764Y001149D02*
X018532Y001149D01*
X018532Y001031D02*
X018764Y001031D01*
X018764Y000912D02*
X018532Y000912D01*
X018469Y000794D02*
X018827Y000794D01*
X019571Y000794D02*
X026738Y000794D01*
X026738Y000912D02*
X019634Y000912D01*
X019634Y001031D02*
X025580Y001031D01*
X025663Y000996D02*
X025459Y001081D01*
X025303Y001236D01*
X025219Y001440D01*
X025219Y001660D01*
X025303Y001864D01*
X025459Y002019D01*
X025663Y002104D01*
X025883Y002104D01*
X026087Y002019D01*
X026242Y001864D01*
X026327Y001660D01*
X026327Y001440D01*
X026242Y001236D01*
X026087Y001081D01*
X025883Y000996D01*
X025663Y000996D01*
X025966Y001031D02*
X026738Y001031D01*
X026738Y001149D02*
X026155Y001149D01*
X026255Y001268D02*
X026738Y001268D01*
X026738Y001386D02*
X026304Y001386D01*
X026327Y001505D02*
X026738Y001505D01*
X026738Y001623D02*
X026327Y001623D01*
X026293Y001742D02*
X026738Y001742D01*
X026738Y001860D02*
X026244Y001860D01*
X026127Y001979D02*
X026738Y001979D01*
X026738Y002097D02*
X025899Y002097D01*
X025647Y002097D02*
X025248Y002097D01*
X025248Y001979D02*
X025418Y001979D01*
X025302Y001860D02*
X025232Y001860D01*
X025253Y001742D02*
X023233Y001742D01*
X023233Y001860D02*
X024313Y001860D01*
X024298Y001979D02*
X023230Y001979D01*
X023230Y002097D02*
X024298Y002097D01*
X024298Y002216D02*
X023230Y002216D01*
X023230Y002334D02*
X024298Y002334D01*
X024298Y002453D02*
X023230Y002453D01*
X023194Y002571D02*
X024190Y002571D01*
X024071Y002690D02*
X023958Y002690D01*
X023958Y002808D02*
X023998Y002808D01*
X024496Y002690D02*
X026738Y002690D01*
X026738Y002571D02*
X025248Y002571D01*
X025248Y002453D02*
X026738Y002453D01*
X026738Y002334D02*
X025248Y002334D01*
X025248Y002216D02*
X026738Y002216D01*
X025219Y001623D02*
X023160Y001623D01*
X022835Y001623D02*
X022611Y001623D01*
X022542Y001505D02*
X025219Y001505D01*
X025241Y001386D02*
X021946Y001386D01*
X021828Y001268D02*
X025291Y001268D01*
X025391Y001149D02*
X019634Y001149D01*
X019634Y001505D02*
X021640Y001505D01*
X021759Y001623D02*
X019634Y001623D01*
X018960Y001979D02*
X018258Y001979D01*
X018258Y002097D02*
X019030Y002097D01*
X019020Y002216D02*
X018258Y002216D01*
X018283Y002334D02*
X018998Y002334D01*
X018998Y002453D02*
X018402Y002453D01*
X018520Y002571D02*
X018998Y002571D01*
X018931Y002690D02*
X018639Y002690D01*
X018757Y002808D02*
X018850Y002808D01*
X018828Y002927D02*
X018808Y002927D01*
X018808Y003045D02*
X018851Y003045D01*
X018808Y003164D02*
X018934Y003164D01*
X019362Y003164D02*
X019798Y003164D01*
X019801Y003282D02*
X019356Y003282D01*
X019475Y003401D02*
X019838Y003401D01*
X019838Y003519D02*
X019593Y003519D01*
X019683Y003638D02*
X019798Y003638D01*
X019798Y003756D02*
X019683Y003756D01*
X019699Y003875D02*
X019798Y003875D01*
X020618Y003875D02*
X022897Y003875D01*
X023016Y003756D02*
X020618Y003756D01*
X020618Y003638D02*
X023134Y003638D01*
X021929Y003993D02*
X020717Y003993D01*
X020836Y004112D02*
X021810Y004112D01*
X021692Y004230D02*
X020954Y004230D01*
X021907Y004467D02*
X023089Y004467D01*
X022970Y004349D02*
X022026Y004349D01*
X020939Y004586D02*
X023218Y004586D01*
X023218Y004704D02*
X020820Y004704D01*
X020716Y004823D02*
X020702Y004823D01*
X020683Y004941D02*
X020578Y004941D01*
X020578Y005060D02*
X020708Y005060D01*
X020578Y005178D02*
X020846Y005178D01*
X021248Y005178D02*
X023218Y005178D01*
X023218Y005060D02*
X021245Y005060D01*
X021163Y004941D02*
X023218Y004941D01*
X023218Y004823D02*
X021130Y004823D01*
X023211Y005297D02*
X024115Y005297D01*
X024205Y005415D02*
X023230Y005415D01*
X023230Y005534D02*
X024308Y005534D01*
X024323Y005652D02*
X023230Y005652D01*
X021575Y006126D02*
X025246Y006126D01*
X025219Y006245D02*
X021540Y006245D01*
X021235Y006126D02*
X019659Y006126D01*
X019674Y006245D02*
X021116Y006245D01*
X020998Y006363D02*
X019925Y006363D01*
X019259Y006363D02*
X019139Y006363D01*
X019139Y006482D02*
X019259Y006482D01*
X019139Y006600D02*
X018532Y006600D01*
X018532Y006719D02*
X018724Y006719D01*
X018724Y006610D02*
X019139Y006610D01*
X019139Y007064D01*
X018863Y007064D01*
X018822Y007053D01*
X018786Y007032D01*
X018756Y007003D01*
X018735Y006966D01*
X018724Y006925D01*
X018724Y006610D01*
X019139Y006719D02*
X019259Y006719D01*
X019259Y006837D02*
X019139Y006837D01*
X019139Y006956D02*
X019259Y006956D01*
X019666Y006956D02*
X026738Y006956D01*
X026738Y006837D02*
X025923Y006837D01*
X025622Y006837D02*
X019674Y006837D01*
X019944Y006719D02*
X025408Y006719D01*
X025298Y006600D02*
X021185Y006600D01*
X021303Y006482D02*
X025249Y006482D01*
X025219Y006363D02*
X021422Y006363D01*
X019259Y006245D02*
X019139Y006245D01*
X019139Y006126D02*
X019259Y006126D01*
X018740Y006126D02*
X018512Y006126D01*
X018532Y006245D02*
X018724Y006245D01*
X018724Y006363D02*
X018532Y006363D01*
X018532Y006482D02*
X018724Y006482D01*
X018724Y006837D02*
X018532Y006837D01*
X018530Y006956D02*
X018732Y006956D01*
X018272Y005652D02*
X019663Y005652D01*
X023958Y005178D02*
X023996Y005178D01*
X025245Y004704D02*
X025962Y004704D01*
X025962Y004586D02*
X025238Y004586D01*
X024203Y004349D02*
X023958Y004349D01*
X023958Y004467D02*
X024091Y004467D01*
X023993Y004230D02*
X024300Y004230D01*
X024309Y004112D02*
X023998Y004112D01*
X019833Y002927D02*
X019468Y002927D01*
X019445Y003045D02*
X019798Y003045D01*
X019838Y002808D02*
X019446Y002808D01*
X019365Y002690D02*
X019838Y002690D01*
X018148Y002925D02*
X018148Y002925D01*
X018148Y002927D02*
X018148Y002927D01*
X018148Y003045D02*
X018148Y003045D01*
X017874Y002690D02*
X017292Y002690D01*
X017371Y002571D02*
X018068Y002571D01*
X017949Y002453D02*
X017400Y002453D01*
X017394Y002334D02*
X017938Y002334D01*
X017938Y002216D02*
X017345Y002216D01*
X017368Y001860D02*
X015050Y001860D01*
X014215Y001860D02*
X012175Y001860D01*
X012294Y001742D02*
X012949Y001742D01*
X012912Y001623D02*
X012412Y001623D01*
X012531Y001505D02*
X012912Y001505D01*
X012225Y001386D02*
X011674Y001386D01*
X011674Y001360D02*
X011674Y001675D01*
X011663Y001716D01*
X011642Y001753D01*
X011612Y001782D01*
X011576Y001803D01*
X011535Y001814D01*
X011259Y001814D01*
X011259Y001360D01*
X011139Y001360D01*
X011139Y001240D01*
X010724Y001240D01*
X010724Y000925D01*
X010735Y000884D01*
X010756Y000847D01*
X010786Y000818D01*
X010822Y000797D01*
X010863Y000786D01*
X011139Y000786D01*
X011139Y001240D01*
X011259Y001240D01*
X011259Y000786D01*
X011535Y000786D01*
X011576Y000797D01*
X011612Y000818D01*
X011642Y000847D01*
X011663Y000884D01*
X011674Y000925D01*
X011674Y001240D01*
X011673Y001240D01*
X011673Y001360D01*
X011674Y001360D01*
X011673Y001268D02*
X012343Y001268D01*
X012912Y001149D02*
X011674Y001149D01*
X011674Y001031D02*
X012912Y001031D01*
X012912Y000912D02*
X011671Y000912D01*
X011564Y000794D02*
X017725Y000794D01*
X017662Y000912D02*
X014884Y000912D01*
X014884Y001031D02*
X017662Y001031D01*
X017662Y001149D02*
X014884Y001149D01*
X014884Y001268D02*
X017662Y001268D01*
X017662Y001386D02*
X014884Y001386D01*
X014884Y001505D02*
X017354Y001505D01*
X017677Y001860D02*
X017938Y001860D01*
X014828Y002216D02*
X014748Y002216D01*
X014748Y002334D02*
X014828Y002334D01*
X014359Y002334D02*
X014201Y002334D01*
X013895Y002216D02*
X013251Y002216D01*
X013390Y002334D02*
X013777Y002334D01*
X013658Y002453D02*
X013459Y002453D01*
X013498Y002571D02*
X013540Y002571D01*
X013964Y002571D02*
X014263Y002571D01*
X014293Y002453D02*
X014083Y002453D01*
X014748Y002453D02*
X014828Y002453D01*
X014828Y002571D02*
X014748Y002571D01*
X014748Y002690D02*
X014828Y002690D01*
X014828Y002808D02*
X014748Y002808D01*
X014748Y002927D02*
X014828Y002927D01*
X014828Y003045D02*
X014748Y003045D01*
X014438Y003045D02*
X013490Y003045D01*
X013609Y002927D02*
X014337Y002927D01*
X014284Y002808D02*
X013727Y002808D01*
X013846Y002690D02*
X014258Y002690D01*
X012764Y002216D02*
X011820Y002216D01*
X011701Y002334D02*
X012626Y002334D01*
X012557Y002453D02*
X011583Y002453D01*
X011464Y002571D02*
X012518Y002571D01*
X012518Y002690D02*
X011346Y002690D01*
X011227Y002808D02*
X012545Y002808D01*
X011938Y002097D02*
X014014Y002097D01*
X014210Y001979D02*
X012057Y001979D01*
X011751Y001860D02*
X009789Y001860D01*
X009735Y001979D02*
X011632Y001979D01*
X011514Y002097D02*
X009665Y002097D01*
X009330Y002097D02*
X008769Y002097D01*
X008554Y001860D02*
X007872Y001860D01*
X007901Y001742D02*
X009342Y001742D01*
X009574Y001623D02*
X007901Y001623D01*
X007901Y001505D02*
X009662Y001505D01*
X009662Y001386D02*
X007857Y001386D01*
X007808Y001268D02*
X009662Y001268D01*
X009662Y001149D02*
X007720Y001149D01*
X007602Y001031D02*
X009662Y001031D01*
X009662Y000912D02*
X007354Y000912D01*
X006941Y000912D02*
X006308Y000912D01*
X006308Y000794D02*
X010834Y000794D01*
X010727Y000912D02*
X010532Y000912D01*
X010532Y001031D02*
X010724Y001031D01*
X010724Y001149D02*
X010532Y001149D01*
X010532Y001268D02*
X011139Y001268D01*
X011139Y001360D02*
X010724Y001360D01*
X010724Y001675D01*
X010735Y001716D01*
X010756Y001753D01*
X010786Y001782D01*
X010822Y001803D01*
X010863Y001814D01*
X011139Y001814D01*
X011139Y001360D01*
X011139Y001386D02*
X011259Y001386D01*
X011259Y001505D02*
X011139Y001505D01*
X011139Y001623D02*
X011259Y001623D01*
X011259Y001742D02*
X011139Y001742D01*
X010750Y001742D02*
X010494Y001742D01*
X010532Y001623D02*
X010724Y001623D01*
X010724Y001505D02*
X010532Y001505D01*
X010532Y001386D02*
X010724Y001386D01*
X011139Y001149D02*
X011259Y001149D01*
X011259Y001031D02*
X011139Y001031D01*
X011139Y000912D02*
X011259Y000912D01*
X011259Y000794D02*
X011139Y000794D01*
X011674Y001505D02*
X012106Y001505D01*
X011988Y001623D02*
X011674Y001623D01*
X011648Y001742D02*
X011869Y001742D01*
X013744Y001742D02*
X014052Y001742D01*
X014014Y001623D02*
X013782Y001623D01*
X013782Y001505D02*
X014014Y001505D01*
X014014Y001386D02*
X013782Y001386D01*
X013782Y001268D02*
X014014Y001268D01*
X014014Y001149D02*
X013782Y001149D01*
X013782Y001031D02*
X014014Y001031D01*
X014014Y000912D02*
X013782Y000912D01*
X006969Y002690D02*
X006308Y002690D01*
X006308Y002808D02*
X006807Y002808D01*
X006748Y002927D02*
X006308Y002927D01*
X006308Y003045D02*
X006732Y003045D01*
X006752Y003164D02*
X006308Y003164D01*
X006308Y003282D02*
X006819Y003282D01*
X008320Y003045D02*
X009071Y003045D01*
X009071Y003164D02*
X008468Y003164D01*
X008541Y003282D02*
X009071Y003282D01*
X009129Y003401D02*
X008583Y003401D01*
X008583Y003519D02*
X009036Y003519D01*
X009031Y003638D02*
X008558Y003638D01*
X008580Y003756D02*
X009031Y003756D01*
X009624Y003675D02*
X009624Y003675D01*
X007669Y004112D02*
X006308Y004112D01*
X006308Y004230D02*
X007620Y004230D01*
X007603Y004349D02*
X006308Y004349D01*
X006308Y004467D02*
X006955Y004467D01*
X006895Y004492D02*
X007034Y004434D01*
X007183Y004434D01*
X007322Y004492D01*
X007428Y004598D01*
X007485Y004736D01*
X007485Y004886D01*
X007428Y005024D01*
X007322Y005130D01*
X007183Y005187D01*
X007034Y005187D01*
X006895Y005130D01*
X006789Y005024D01*
X006732Y004886D01*
X006732Y004736D01*
X006789Y004598D01*
X006895Y004492D01*
X006801Y004586D02*
X006308Y004586D01*
X006308Y004704D02*
X006745Y004704D01*
X006732Y004823D02*
X006308Y004823D01*
X006308Y004941D02*
X006755Y004941D01*
X006825Y005060D02*
X006308Y005060D01*
X006308Y005178D02*
X007011Y005178D01*
X007206Y005178D02*
X007576Y005178D01*
X007622Y005060D02*
X007392Y005060D01*
X007462Y004941D02*
X007705Y004941D01*
X007868Y004823D02*
X007485Y004823D01*
X007472Y004704D02*
X007735Y004704D01*
X007652Y004586D02*
X007416Y004586D01*
X007262Y004467D02*
X007603Y004467D01*
X008063Y005297D02*
X006308Y005297D01*
X008063Y005415D02*
X008123Y005415D01*
X011614Y006126D02*
X012922Y006126D01*
X012903Y006245D02*
X011634Y006245D01*
X011634Y006363D02*
X012903Y006363D01*
X012805Y003993D02*
X015123Y003993D01*
X015123Y003875D02*
X012193Y003875D01*
X012210Y003993D02*
X012490Y003993D01*
X006852Y002334D02*
X006308Y002334D01*
X006308Y002216D02*
X006657Y002216D01*
X006538Y002097D02*
X006308Y002097D01*
X006308Y001979D02*
X006472Y001979D01*
X006423Y001860D02*
X006308Y001860D01*
X006308Y001742D02*
X006395Y001742D01*
X006395Y001623D02*
X006308Y001623D01*
X006308Y001505D02*
X006395Y001505D01*
X006439Y001386D02*
X006308Y001386D01*
X006308Y001268D02*
X006488Y001268D01*
X006575Y001149D02*
X006308Y001149D01*
X006308Y001031D02*
X006694Y001031D01*
X022065Y001505D02*
X022204Y001505D01*
X022605Y001742D02*
X022762Y001742D01*
X022763Y001860D02*
X022527Y001860D01*
X026145Y005889D02*
X026738Y005889D01*
X026738Y006008D02*
X026251Y006008D01*
X026300Y006126D02*
X026738Y006126D01*
X026738Y006245D02*
X026327Y006245D01*
X026327Y006363D02*
X026738Y006363D01*
X026738Y006482D02*
X026297Y006482D01*
X026248Y006600D02*
X026738Y006600D01*
X026738Y006719D02*
X026137Y006719D01*
M02*
