%
M48
M72
T01C0.0120
T02C0.0200
T03C0.0315
T04C0.0360
T05C0.0400
T06C0.0433
T07C0.0787
T08C0.0866
%
T01
X6523Y925
X9498Y1925
X11023Y3175
X12648Y4175
X13898Y4675
X15273Y6550
X19773Y6550
X20923Y4950
X26523Y6925
X20773Y2925
X22673Y2675
X22998Y1800
X22373Y1675
X19198Y1925
X17523Y1675
X14448Y1925
X26523Y925
X6523Y6925
T02
X18148Y4925
X19148Y4925
X19148Y3925
X18148Y3925
X18148Y2925
X19148Y2925
T03
X17023Y2425
X16023Y2425
X16023Y3425
X17023Y3425
X17023Y4425
X16023Y4425
X16023Y5425
X17023Y5425
T04
X8093Y5303
X8093Y4369
X8093Y3481
X8093Y2547
T05
X13008Y2645
X14788Y2645
X14788Y5205
X13008Y5205
T06
X7109Y4811
X7109Y3039
T07
X25773Y1550
X25773Y6300
T08
X7148Y6208
X7148Y1642
M30
